<svg width="47" height="47" viewBox="0 0 47 47" fill="none" xmlns="http://www.w3.org/2000/svg">
<g clip-path="url(#clip0_194_1094)">
<path d="M23.5 0C18.8522 0 14.3087 1.37825 10.4441 3.96046C6.57955 6.54268 3.5675 10.2129 1.78884 14.5069C0.0101822 18.801 -0.455196 23.5261 0.451556 28.0846C1.35831 32.6432 3.59647 36.8305 6.883 40.117C10.1695 43.4035 14.3568 45.6417 18.9154 46.5485C23.4739 47.4552 28.199 46.9898 32.4931 45.2112C36.7871 43.4325 40.4573 40.4205 43.0395 36.5559C45.6218 32.6913 47 28.1479 47 23.5C46.9933 17.2695 44.5152 11.2961 40.1096 6.89043C35.7039 2.48479 29.7305 0.00673878 23.5 0V0ZM31.3333 25.4583H25.4583V31.3333C25.4583 31.8527 25.252 32.3508 24.8848 32.7181C24.5175 33.0853 24.0194 33.2917 23.5 33.2917C22.9806 33.2917 22.4825 33.0853 22.1153 32.7181C21.748 32.3508 21.5417 31.8527 21.5417 31.3333V25.4583H15.6667C15.1473 25.4583 14.6492 25.252 14.2819 24.8848C13.9147 24.5175 13.7083 24.0194 13.7083 23.5C13.7083 22.9806 13.9147 22.4825 14.2819 22.1153C14.6492 21.748 15.1473 21.5417 15.6667 21.5417H21.5417V15.6667C21.5417 15.1473 21.748 14.6492 22.1153 14.2819C22.4825 13.9147 22.9806 13.7083 23.5 13.7083C24.0194 13.7083 24.5175 13.9147 24.8848 14.2819C25.252 14.6492 25.4583 15.1473 25.4583 15.6667V21.5417H31.3333C31.8527 21.5417 32.3508 21.748 32.7181 22.1153C33.0854 22.4825 33.2917 22.9806 33.2917 23.5C33.2917 24.0194 33.0854 24.5175 32.7181 24.8848C32.3508 25.252 31.8527 25.4583 31.3333 25.4583Z" fill="#FFA4BC"/>
</g>
<defs>
<clipPath id="clip0_194_1094">
<rect width="47" height="47" fill="white"/>
</clipPath>
</defs>
</svg>
