<svg width="17" height="17" viewBox="0 0 17 17" fill="none" xmlns="http://www.w3.org/2000/svg">
<path d="M4.72607 15.9376C4.72631 15.6559 4.83471 15.3858 5.02743 15.1868L10.2819 9.75245C10.441 9.588 10.5672 9.39277 10.6532 9.17789C10.7393 8.96301 10.7836 8.7327 10.7836 8.50011C10.7836 8.26753 10.7393 8.03722 10.6532 7.82234C10.5672 7.60746 10.441 7.41222 10.2819 7.24778L5.03428 1.81699C4.84714 1.6166 4.74359 1.34821 4.74593 1.06963C4.74827 0.791041 4.85631 0.524553 5.04679 0.327557C5.23727 0.13056 5.49494 0.0188184 5.76431 0.0163976C6.03367 0.0139768 6.29318 0.121071 6.48694 0.314614L11.7346 5.74116C12.4402 6.47234 12.8365 7.46318 12.8365 8.49622C12.8365 9.52926 12.4402 10.5201 11.7346 11.2513L6.48009 16.6856C6.33662 16.8341 6.15384 16.9353 5.95481 16.9764C5.75578 17.0176 5.54943 16.9969 5.36179 16.9168C5.17415 16.8368 5.01363 16.7011 4.90049 16.5268C4.78735 16.3526 4.72666 16.1475 4.72607 15.9376Z" fill="#026247"/>
</svg>
