<svg width="48" height="48" viewBox="0 0 48 48" fill="none" xmlns="http://www.w3.org/2000/svg">
<circle cx="24" cy="24" r="24" fill="#026247"/>
<path d="M29.9209 13.505C29.9206 13.9026 29.7623 14.2839 29.4809 14.565L21.8089 22.237C21.5767 22.4691 21.3925 22.7447 21.2668 23.0481C21.1412 23.3515 21.0765 23.6766 21.0765 24.005C21.0765 24.3333 21.1412 24.6585 21.2668 24.9618C21.3925 25.2652 21.5767 25.5408 21.8089 25.773L29.4709 33.435C29.7442 33.7179 29.8954 34.0968 29.892 34.4901C29.8885 34.8834 29.7308 35.2596 29.4527 35.5377C29.1746 35.8158 28.7983 35.9735 28.405 35.977C28.0118 35.9804 27.6329 35.8292 27.3499 35.556L19.6879 27.9C18.6577 26.8677 18.0791 25.4689 18.0791 24.0105C18.0791 22.552 18.6577 21.1532 19.6879 20.121L27.3599 12.444C27.5697 12.234 27.8371 12.0911 28.1281 12.0331C28.4192 11.9752 28.7209 12.0049 28.9951 12.1185C29.2692 12.2321 29.5036 12.4244 29.6684 12.6712C29.8332 12.918 29.9211 13.2082 29.9209 13.505Z" fill="white"/>
</svg>
