<svg width="25" height="25" viewBox="0 0 25 25" fill="none" xmlns="http://www.w3.org/2000/svg">
<g clip-path="url(#clip0_462_1790)">
<path d="M16.4999 11.1998C16.4999 12.6998 14.2409 14.9318 12.4999 16.2618C10.7589 14.9318 8.49988 12.7018 8.49988 11.1998C8.42388 9.1938 11.4129 8.7998 11.4999 10.9538V11.4998C11.4999 11.765 11.6052 12.0194 11.7928 12.2069C11.9803 12.3944 12.2347 12.4998 12.4999 12.4998C12.7651 12.4998 13.0195 12.3944 13.207 12.2069C13.3945 12.0194 13.4999 11.765 13.4999 11.4998V10.9538C13.5869 8.7998 16.5759 9.1938 16.4999 11.1998ZM24.4999 12.8398V19.4998C24.498 20.8253 23.9707 22.096 23.0334 23.0333C22.0961 23.9706 20.8254 24.498 19.4999 24.4998H13.5839C6.58188 24.4998 0.969881 19.7078 0.528881 13.3548C0.406247 11.6406 0.653267 9.91996 1.25323 8.30945C1.85319 6.69893 2.79209 5.23608 4.00639 4.01988C5.2207 2.80367 6.68209 1.86249 8.29166 1.26002C9.90123 0.657549 11.6214 0.407845 13.3359 0.527804C16.4074 0.791441 19.2654 2.20725 21.3362 4.49098C23.407 6.7747 24.5372 9.75725 24.4999 12.8398ZM18.4999 11.1998C18.5202 10.4962 18.3319 9.80239 17.9587 9.20561C17.5855 8.60883 17.0441 8.1358 16.4026 7.84607C15.7612 7.55634 15.0483 7.46287 14.3539 7.57742C13.6594 7.69197 13.0143 8.00942 12.4999 8.4898C11.9854 8.00942 11.3404 7.69197 10.6459 7.57742C9.95143 7.46287 9.23859 7.55634 8.59712 7.84607C7.95566 8.1358 7.41425 8.60883 7.04106 9.20561C6.66786 9.80239 6.47957 10.4962 6.49988 11.1998C6.49988 14.4558 11.3739 17.9358 11.9299 18.3218C12.0973 18.4379 12.2962 18.5002 12.4999 18.5002C12.7036 18.5002 12.9025 18.4379 13.0699 18.3218C13.6259 17.9358 18.4999 14.4558 18.4999 11.1998Z" fill="white"/>
</g>
<defs>
<clipPath id="clip0_462_1790">
<rect width="24" height="24" fill="white" transform="translate(0.5 0.5)"/>
</clipPath>
</defs>
</svg>
