<svg width="24" height="25" viewBox="0 0 24 25" fill="none" xmlns="http://www.w3.org/2000/svg">
<g clip-path="url(#clip0_449_3244)">
<path d="M15.9998 11.1998C15.9998 12.6998 13.7408 14.9318 11.9998 16.2618C10.2588 14.9318 7.99976 12.7018 7.99976 11.1998C7.92376 9.1938 10.9128 8.7998 10.9998 10.9538V11.4998C10.9998 11.765 11.1051 12.0194 11.2927 12.2069C11.4802 12.3944 11.7345 12.4998 11.9998 12.4998C12.265 12.4998 12.5193 12.3944 12.7069 12.2069C12.8944 12.0194 12.9998 11.765 12.9998 11.4998V10.9538C13.0868 8.7998 16.0758 9.1938 15.9998 11.1998ZM23.9998 12.8398V19.4998C23.9979 20.8253 23.4705 22.096 22.5333 23.0333C21.596 23.9706 20.3253 24.498 18.9998 24.4998H13.0838C6.08176 24.4998 0.469759 19.7078 0.0287589 13.3548C-0.0938752 11.6406 0.153145 9.91996 0.753104 8.30945C1.35306 6.69893 2.29196 5.23608 3.50627 4.01988C4.72058 2.80367 6.18196 1.86249 7.79154 1.26002C9.40111 0.657549 11.1213 0.407845 12.8358 0.527804C15.9072 0.791441 18.7653 2.20725 20.8361 4.49098C22.9069 6.7747 24.0371 9.75725 23.9998 12.8398V12.8398ZM17.9998 11.1998C18.0201 10.4962 17.8318 9.80239 17.4586 9.20561C17.0854 8.60883 16.544 8.1358 15.9025 7.84607C15.2611 7.55634 14.5482 7.46287 13.8537 7.57742C13.1593 7.69197 12.5142 8.00942 11.9998 8.4898C11.4853 8.00942 10.8403 7.69197 10.1458 7.57742C9.45131 7.46287 8.73846 7.55634 8.097 7.84607C7.45554 8.1358 6.91413 8.60883 6.54093 9.20561C6.16774 9.80239 5.97945 10.4962 5.99976 11.1998C5.99976 14.4558 10.8738 17.9358 11.4298 18.3218C11.5972 18.4379 11.796 18.5002 11.9998 18.5002C12.2035 18.5002 12.4024 18.4379 12.5698 18.3218C13.1258 17.9358 17.9998 14.4558 17.9998 11.1998Z" fill="#C1FC70"/>
</g>
<defs>
<clipPath id="clip0_449_3244">
<rect width="24" height="24" fill="white" transform="translate(0 0.5)"/>
</clipPath>
</defs>
</svg>
