<svg width="25" height="24" viewBox="0 0 25 24" fill="none" xmlns="http://www.w3.org/2000/svg">
<g clip-path="url(#clip0_216_910)">
<path d="M23.9012 5H21.3152L23.6082 2.707C23.7903 2.5184 23.8911 2.2658 23.8888 2.0036C23.8866 1.7414 23.7814 1.49059 23.596 1.30518C23.4106 1.11977 23.1598 1.0146 22.8976 1.01233C22.6354 1.01005 22.3828 1.11084 22.1942 1.293L19.9012 3.586V1C19.9012 0.734784 19.7958 0.48043 19.6083 0.292893C19.4207 0.105357 19.1664 0 18.9012 0C18.6359 0 18.3816 0.105357 18.1941 0.292893C18.0065 0.48043 17.9012 0.734784 17.9012 1V5.456C17.0826 4.58461 16.1164 3.86486 15.0472 3.33C14.3045 3.00206 13.4755 2.92372 12.6846 3.10672C11.8936 3.28972 11.1833 3.7242 10.6602 4.345L13.6082 7.293C13.7903 7.4816 13.8911 7.7342 13.8888 7.9964C13.8866 8.2586 13.7814 8.50941 13.596 8.69482C13.4106 8.88023 13.1598 8.9854 12.8976 8.98767C12.6354 8.98995 12.3828 8.88916 12.1942 8.707L9.42216 5.936C8.28516 7.605 6.76116 10.2 5.23516 12.92L7.60816 15.293C7.79032 15.4816 7.89111 15.7342 7.88883 15.9964C7.88656 16.2586 7.78139 16.5094 7.59598 16.6948C7.41057 16.8802 7.15976 16.9854 6.89756 16.9877C6.63536 16.99 6.38276 16.8892 6.19416 16.707L4.22316 14.736C3.11616 16.742 2.05716 18.712 1.20116 20.319C0.958149 20.792 0.871549 21.3298 0.953837 21.8552C1.03612 22.3805 1.28305 22.8661 1.65904 23.2421C2.03503 23.6181 2.52067 23.865 3.046 23.9473C3.57132 24.0296 4.10921 23.943 4.58216 23.7C7.40716 22.2 11.3442 20.067 14.6372 18.15L12.1942 15.707C12.012 15.5184 11.9112 15.2658 11.9135 15.0036C11.9158 14.7414 12.0209 14.4906 12.2063 14.3052C12.3917 14.1198 12.6426 14.0146 12.9048 14.0123C13.167 14.01 13.4196 14.1108 13.6082 14.293L16.4132 17.1C17.867 16.2881 19.2429 15.3438 20.5232 14.279C21.1558 13.7568 21.6005 13.0422 21.7899 12.2441C21.9792 11.4459 21.9028 10.6077 21.5722 9.857C21.0368 8.78693 20.3168 7.81975 19.4452 7H23.9012C24.1664 7 24.4207 6.89464 24.6083 6.70711C24.7958 6.51957 24.9012 6.26522 24.9012 6C24.9012 5.73478 24.7958 5.48043 24.6083 5.29289C24.4207 5.10536 24.1664 5 23.9012 5Z" fill="#026247"/>
</g>
<defs>
<clipPath id="clip0_216_910">
<rect width="24" height="24" fill="white" transform="translate(0.901123)"/>
</clipPath>
</defs>
</svg>
