<svg width="40" height="40" viewBox="0 0 40 40" fill="none" xmlns="http://www.w3.org/2000/svg">
<path d="M0 36.6667H33.3333V40H0V36.6667ZM40 13.3333C40 17.9567 36.3583 23.3333 31.6667 23.3333H29.9417L28.0467 33.3333H5.28667L0.108333 6.03C-0.0386161 5.30271 -0.0229509 4.55192 0.154207 3.83139C0.331365 3.11086 0.665634 2.43841 1.13308 1.86219C1.60053 1.28596 2.1896 0.820205 2.85811 0.498271C3.52662 0.176338 4.25804 0.00618671 5 0L28.3333 0C29.0824 1.73529e-05 29.8218 0.168328 30.4971 0.492498C31.1724 0.816667 31.7662 1.28841 32.2346 1.87288C32.7031 2.45735 33.0343 3.1396 33.2037 3.86924C33.3731 4.59887 33.3764 5.35725 33.2133 6.08833L33.0867 6.755C37.4333 7.17833 40 9.55667 40 13.3333ZM36.6667 13.3333C36.6667 12.555 36.6667 10.2817 32.465 10.025L30.575 20H31.6667C34.2417 20 36.6667 16.2433 36.6667 13.3333Z" fill="#026247"/>
</svg>
