<svg width="24" height="24" viewBox="0 0 24 24" fill="none" xmlns="http://www.w3.org/2000/svg">
<path d="M14.0036 2C14.0036 2.53043 13.7929 3.03914 13.4178 3.41421C13.0428 3.78929 12.5341 4 12.0036 4C11.4732 4 10.9645 3.78929 10.5894 3.41421C10.2143 3.03914 10.0036 2.53043 10.0036 2C10.0036 1.46957 10.2143 0.960859 10.5894 0.585786C10.9645 0.210714 11.4732 0 12.0036 0C12.5341 0 13.0428 0.210714 13.4178 0.585786C13.7929 0.960859 14.0036 1.46957 14.0036 2V2ZM19.8516 18.636C19.2382 18.8814 18.5821 19.0024 17.9215 18.9919C17.2609 18.9814 16.609 18.8397 16.0036 18.575C15.3728 18.8503 14.6919 18.9924 14.0036 18.9924C13.3153 18.9924 12.6345 18.8503 12.0036 18.575C11.3728 18.8503 10.6919 18.9924 10.0036 18.9924C9.31534 18.9924 8.63446 18.8503 8.00363 18.575C7.39774 18.8396 6.74532 18.9813 6.08425 18.9918C5.42317 19.0022 4.7666 18.8813 4.15263 18.636C3.6309 18.8404 3.08007 18.9609 2.52063 18.993L2.67763 19.875C2.88194 21.0324 3.48795 22.0805 4.389 22.8351C5.29005 23.5896 6.42838 24.0021 7.60363 24H16.4036C17.5783 24.0016 18.7159 23.5888 19.6162 22.8343C20.5165 22.0797 21.1218 21.0319 21.3256 19.875L21.4826 18.993C20.9235 18.9614 20.3729 18.8408 19.8516 18.636V18.636ZM23.5276 11.412C22.8009 9.66171 21.6662 8.11053 20.2182 6.88781C18.7703 5.6651 17.0509 4.80629 15.2036 4.383C14.8294 4.87631 14.3462 5.27633 13.7916 5.55172C13.2371 5.82712 12.6263 5.97043 12.0071 5.97043C11.388 5.97043 10.7772 5.82712 10.2226 5.55172C9.66809 5.27633 9.18481 4.87631 8.81063 4.383C6.96223 4.80576 5.24174 5.66441 3.79268 6.88733C2.34363 8.11024 1.20803 9.66195 0.480627 11.413C0.149576 12.3949 -0.0117326 13.4259 0.00362727 14.462C-0.0142456 14.7871 0.0340631 15.1125 0.145627 15.4184C0.257192 15.7243 0.42969 16.0044 0.652674 16.2417C0.875658 16.479 1.14449 16.6685 1.44288 16.7989C1.74127 16.9292 2.06302 16.9976 2.38863 17C2.84263 17 3.95163 16.692 4.07363 16.277C4.62428 16.7455 5.32641 16.9981 6.04935 16.9876C6.77229 16.9771 7.4668 16.7043 8.00363 16.22C8.55264 16.714 9.26507 16.9874 10.0036 16.9874C10.7422 16.9874 11.4546 16.714 12.0036 16.22C12.5525 16.7142 13.265 16.9877 14.0036 16.9877C14.7423 16.9877 15.4547 16.7142 16.0036 16.22C16.5405 16.7043 17.235 16.9771 17.9579 16.9876C18.6809 16.9981 19.383 16.7455 19.9336 16.277C20.0556 16.692 21.1656 17 21.6186 17C21.9442 16.9974 22.2658 16.9288 22.564 16.7983C22.8623 16.6679 23.131 16.4783 23.3539 16.2411C23.5769 16.0038 23.7494 15.7239 23.861 15.4181C23.9727 15.1123 24.0212 14.7871 24.0036 14.462C24.0194 13.4257 23.8584 12.3942 23.5276 11.412V11.412Z" fill="white"/>
</svg>
