<svg width="18" height="25" viewBox="0 0 18 25" fill="none" xmlns="http://www.w3.org/2000/svg">
<path d="M16 3.522C16 3.514 16 3.508 16 3.5V1.5C16 1.23478 15.8946 0.98043 15.7071 0.792893C15.5196 0.605357 15.2652 0.5 15 0.5C14.7348 0.5 14.4804 0.605357 14.2929 0.792893C14.1054 0.98043 14 1.23478 14 1.5V2.6C13.6709 2.53317 13.3358 2.49966 13 2.5H12V1.5C12 1.23478 11.8946 0.98043 11.7071 0.792893C11.5196 0.605357 11.2652 0.5 11 0.5C10.7348 0.5 10.4804 0.605357 10.2929 0.792893C10.1054 0.98043 10 1.23478 10 1.5V2.5H8V1.5C8 1.23478 7.89464 0.98043 7.70711 0.792893C7.51957 0.605357 7.26522 0.5 7 0.5C6.73478 0.5 6.48043 0.605357 6.29289 0.792893C6.10536 0.98043 6 1.23478 6 1.5V2.5H5C4.66415 2.49966 4.32913 2.53317 4 2.6V1.5C4 1.23478 3.89464 0.98043 3.70711 0.792893C3.51957 0.605357 3.26522 0.5 3 0.5C2.73478 0.5 2.48043 0.605357 2.29289 0.792893C2.10536 0.98043 2 1.23478 2 1.5V3.5V3.522C1.38078 3.98437 0.877698 4.58454 0.530565 5.27498C0.183433 5.96543 0.00178433 6.7272 0 7.5V19.5C0.00158786 20.8256 0.528882 22.0964 1.46622 23.0338C2.40356 23.9711 3.6744 24.4984 5 24.5H13C14.3256 24.4984 15.5964 23.9711 16.5338 23.0338C17.4711 22.0964 17.9984 20.8256 18 19.5V7.5C17.9982 6.7272 17.8166 5.96543 17.4694 5.27498C17.1223 4.58454 16.6192 3.98437 16 3.522V3.522ZM9 17.5H5C4.73478 17.5 4.48043 17.3946 4.29289 17.2071C4.10536 17.0196 4 16.7652 4 16.5C4 16.2348 4.10536 15.9804 4.29289 15.7929C4.48043 15.6054 4.73478 15.5 5 15.5H9C9.26522 15.5 9.51957 15.6054 9.70711 15.7929C9.89464 15.9804 10 16.2348 10 16.5C10 16.7652 9.89464 17.0196 9.70711 17.2071C9.51957 17.3946 9.26522 17.5 9 17.5ZM13 13.5H5C4.73478 13.5 4.48043 13.3946 4.29289 13.2071C4.10536 13.0196 4 12.7652 4 12.5C4 12.2348 4.10536 11.9804 4.29289 11.7929C4.48043 11.6054 4.73478 11.5 5 11.5H13C13.2652 11.5 13.5196 11.6054 13.7071 11.7929C13.8946 11.9804 14 12.2348 14 12.5C14 12.7652 13.8946 13.0196 13.7071 13.2071C13.5196 13.3946 13.2652 13.5 13 13.5ZM13 9.5H5C4.73478 9.5 4.48043 9.39464 4.29289 9.20711C4.10536 9.01957 4 8.76522 4 8.5C4 8.23478 4.10536 7.98043 4.29289 7.79289C4.48043 7.60536 4.73478 7.5 5 7.5H13C13.2652 7.5 13.5196 7.60536 13.7071 7.79289C13.8946 7.98043 14 8.23478 14 8.5C14 8.76522 13.8946 9.01957 13.7071 9.20711C13.5196 9.39464 13.2652 9.5 13 9.5Z" fill="white"/>
</svg>
