<svg width="40" height="40" viewBox="0 0 40 40" fill="none" xmlns="http://www.w3.org/2000/svg">
<path d="M40 25.0001C40 33.4618 28.3333 40.0001 25 40.0001H15C11.6667 40.0001 0 33.4618 0 25.0001C0.0140347 23.6703 0.551714 22.3996 1.49644 21.4636C2.44117 20.5277 3.71678 20.0018 5.04667 20.0001H34.9533C36.283 20.0027 37.5581 20.5288 38.5026 21.4646C39.4471 22.4004 39.9851 23.6706 40 25.0001V25.0001ZM32.8567 5.03345C32.2767 5.11345 31.645 5.22679 30.9983 5.35512C31.49 3.89512 32.665 0.188452 29.9983 0.000118416C29.5563 0.000118416 29.1324 0.175713 28.8198 0.488274C28.5073 0.800834 28.3317 1.22476 28.3317 1.66679C28.3512 2.61701 28.1662 3.56033 27.7892 4.43278C27.4122 5.30524 26.852 6.08645 26.1467 6.72345C24.6866 7.20643 23.3367 7.97399 22.175 8.98179C21.1889 9.96782 20.5002 11.2114 20.1875 12.5704C19.8747 13.9294 19.9507 15.3489 20.4067 16.6668H22.6433L27.155 12.1551C27.4693 11.8515 27.8903 11.6835 28.3273 11.6873C28.7643 11.6911 29.1823 11.8664 29.4914 12.1754C29.8004 12.4844 29.9757 12.9025 29.9795 13.3395C29.9833 13.7764 29.8153 14.1974 29.5117 14.5118L27.3567 16.6668H34.4417C35.4761 14.1428 36.2122 11.5066 36.635 8.81179C36.7072 8.29875 36.6592 7.77597 36.4948 7.28465C36.3305 6.79333 36.0542 6.34691 35.6879 5.98057C35.3215 5.61423 34.8751 5.33799 34.3838 5.17363C33.8925 5.00927 33.3697 4.96129 32.8567 5.03345V5.03345ZM16.6667 16.6668C16.4433 7.87179 3.555 7.87845 3.33333 16.6668H16.6667ZM17.5 10.1135C18.1173 8.65385 19.0398 7.34322 20.2055 6.26955C21.3711 5.19587 22.753 4.38401 24.2583 3.88845C24.6852 3.36504 24.937 2.7209 24.9783 2.04679C24.2388 1.27532 23.3253 0.692101 22.3142 0.345897C21.3031 -0.00030738 20.2239 -0.0994405 19.1667 0.0567851C17.9561 0.153953 16.7991 0.597112 15.8333 1.33345C14.7421 0.512335 13.4219 0.0520694 12.0567 0.0167851C10.3232 -0.15071 8.59387 0.374794 7.24667 1.47845C6.35123 2.26403 5.68509 3.2773 5.31889 4.41081C4.95269 5.54432 4.90009 6.7558 5.16667 7.91679C7.16519 6.82335 9.47714 6.44507 11.7199 6.84453C13.9627 7.24398 16.0019 8.39724 17.5 10.1135V10.1135Z" fill="#026247"/>
</svg>
