<svg width="15" height="15" viewBox="0 0 15 15" fill="none" xmlns="http://www.w3.org/2000/svg">
<g clip-path="url(#clip0_561_2376)">
<path d="M0.7325 11.9491C0.263627 12.4178 0.000141594 13.0536 0 13.7166L0 14.9997H1.28312C1.94611 14.9996 2.58189 14.7361 3.05063 14.2672L11.39 5.92786L9.07188 3.60974L0.7325 11.9491Z" fill="white"/>
<path d="M14.4656 0.534416C14.3134 0.382063 14.1326 0.261201 13.9337 0.178739C13.7348 0.0962771 13.5215 0.053833 13.3062 0.053833C13.0908 0.053833 12.8776 0.0962771 12.6787 0.178739C12.4797 0.261201 12.299 0.382063 12.1468 0.534416L9.95557 2.72629L12.2737 5.04442L14.4656 2.85317C14.6179 2.70097 14.7388 2.52024 14.8212 2.32131C14.9037 2.12237 14.9461 1.90914 14.9461 1.69379C14.9461 1.47844 14.9037 1.26521 14.8212 1.06627C14.7388 0.86734 14.6179 0.68661 14.4656 0.534416V0.534416Z" fill="white"/>
</g>
<defs>
<clipPath id="clip0_561_2376">
<rect width="15" height="15" fill="white"/>
</clipPath>
</defs>
</svg>
