<svg width="64" height="64" viewBox="0 0 64 64" fill="none" xmlns="http://www.w3.org/2000/svg">
<path d="M33.8024 14.9225C44.3307 14.9225 52.6831 21.8524 52.6833 30.1969C52.6833 38.5416 44.3308 45.4714 33.8024 45.4714C23.2742 45.4712 14.9225 38.5415 14.9225 30.1969C14.9227 21.8525 23.2743 14.9227 33.8024 14.9225Z" fill="#026247" stroke="black"/>
<path d="M32 0C25.671 0 19.4841 1.87677 14.2218 5.39297C8.95939 8.90918 4.85787 13.9069 2.43587 19.7541C0.0138652 25.6014 -0.619842 32.0355 0.614885 38.2429C1.84961 44.4503 4.89732 50.1521 9.3726 54.6274C13.8479 59.1027 19.5497 62.1504 25.7571 63.3851C31.9645 64.6198 38.3986 63.9861 44.2459 61.5641C50.0931 59.1421 55.0908 55.0406 58.607 49.7782C62.1232 44.5159 64 38.329 64 32C63.9908 23.5159 60.6165 15.3819 54.6173 9.38272C48.6181 3.38354 40.4841 0.00917622 32 0V0ZM42.6667 34.6667H34.6667V42.6667C34.6667 43.3739 34.3857 44.0522 33.8856 44.5523C33.3855 45.0524 32.7073 45.3333 32 45.3333C31.2928 45.3333 30.6145 45.0524 30.1144 44.5523C29.6143 44.0522 29.3333 43.3739 29.3333 42.6667V34.6667H21.3333C20.6261 34.6667 19.9478 34.3857 19.4477 33.8856C18.9476 33.3855 18.6667 32.7072 18.6667 32C18.6667 31.2928 18.9476 30.6145 19.4477 30.1144C19.9478 29.6143 20.6261 29.3333 21.3333 29.3333H29.3333V21.3333C29.3333 20.6261 29.6143 19.9478 30.1144 19.4477C30.6145 18.9476 31.2928 18.6667 32 18.6667C32.7073 18.6667 33.3855 18.9476 33.8856 19.4477C34.3857 19.9478 34.6667 20.6261 34.6667 21.3333V29.3333H42.6667C43.3739 29.3333 44.0522 29.6143 44.5523 30.1144C45.0524 30.6145 45.3333 31.2928 45.3333 32C45.3333 32.7072 45.0524 33.3855 44.5523 33.8856C44.0522 34.3857 43.3739 34.6667 42.6667 34.6667Z" fill="#FFA4BC"/>
</svg>
