<svg width="26" height="26" viewBox="0 0 26 26" fill="none" xmlns="http://www.w3.org/2000/svg">
<g clip-path="url(#clip0_487_2384)">
<path d="M20.9565 8.08756C20.6514 7.8766 20.283 7.77717 19.9133 7.80601C19.5435 7.83485 19.1949 7.99019 18.9263 8.2459C17.7069 9.14888 16.2684 9.70955 14.7596 9.86986C14.489 9.86282 14.2317 9.75069 14.0423 9.55721C13.8529 9.36374 13.7463 9.10413 13.745 8.8334V7.75527C15.341 7.76118 16.8784 7.15405 18.0397 6.05924C19.201 4.96442 19.8976 3.4655 19.9857 1.87193C20.0084 1.68755 19.9889 1.50041 19.9285 1.32472C19.868 1.14904 19.7684 0.989451 19.637 0.858084C19.5056 0.726718 19.346 0.627036 19.1704 0.56662C18.9947 0.506204 18.8075 0.486644 18.6232 0.509428C16.6909 0.589637 13.8492 2.09276 13.2575 4.3636C12.9032 3.04215 12.2548 1.81789 11.3607 0.782345C11.1663 0.589667 10.9039 0.481228 10.6302 0.480473C10.3565 0.479718 10.0935 0.586707 9.89808 0.77831C9.70264 0.969913 9.59047 1.23073 9.5858 1.50439C9.58114 1.77804 9.68436 2.04253 9.87315 2.24068C10.911 3.52418 11.5182 5.10195 11.6086 6.75006H9.05753C6.6418 6.82388 4.35374 7.85187 2.69427 9.60895C1.0348 11.366 0.139134 13.7091 0.203363 16.1251C0.0356544 21.9584 6.08253 27.347 11.4013 24.8595C11.8075 24.6012 12.2796 24.4656 12.761 24.4691C13.2423 24.4727 13.7124 24.6151 14.1148 24.8793C14.7949 25.2724 15.5638 25.4861 16.3492 25.5001C25.4252 25.4188 28.395 12.8688 20.9565 8.08756Z" fill="#026247"/>
</g>
<defs>
<clipPath id="clip0_487_2384">
<rect width="25" height="25" fill="white" transform="translate(0.203369 0.5)"/>
</clipPath>
</defs>
</svg>
