<svg width="24" height="25" viewBox="0 0 24 25" fill="none" xmlns="http://www.w3.org/2000/svg">
<g clip-path="url(#clip0_273_1393)">
<path d="M23.925 18.6434C24.0498 19.3616 24.0161 20.0984 23.8261 20.8022C23.6362 21.506 23.2947 22.1598 22.8255 22.7177C22.3563 23.2756 21.7707 23.7241 21.1099 24.0319C20.4491 24.3397 19.729 24.4992 19 24.4994H16C15.7348 24.4994 15.4805 24.3941 15.2929 24.2065C15.1054 24.019 15 23.7646 15 23.4994V20.9094C14.0457 21.292 13.0281 21.4921 12 21.4994C10.9713 21.4889 9.95369 21.2853 9.00004 20.8994V23.4994C9.00004 23.7646 8.89468 24.019 8.70715 24.2065C8.51961 24.3941 8.26526 24.4994 8.00004 24.4994H5.00004C4.27107 24.4992 3.55095 24.3397 2.89014 24.0319C2.22933 23.7241 1.64382 23.2756 1.17462 22.7177C0.705414 22.1598 0.363878 21.506 0.173935 20.8022C-0.0160068 20.0984 -0.0497605 19.3616 0.0750394 18.6434L0.375039 16.9034C0.474797 16.3247 0.745634 15.7892 1.15262 15.3658C1.55961 14.9425 2.08409 14.6508 2.65842 14.5283C3.23276 14.4058 3.83061 14.4582 4.37488 14.6787C4.91916 14.8992 5.3849 15.2777 5.71204 15.7654C6.97604 17.6234 9.40904 19.4994 12 19.4994C15.13 19.4994 18.214 16.7204 19.13 14.1234C19.2036 13.9282 19.3346 13.7599 19.5058 13.6408C19.6771 13.5217 19.8805 13.4574 20.089 13.4564L20.521 13.4634C20.7147 13.4658 20.9068 13.4297 21.0864 13.3571C21.2659 13.2846 21.4292 13.1771 21.5668 13.0409C21.7045 12.9046 21.8136 12.7424 21.888 12.5636C21.9624 12.3848 22.0005 12.1931 22 11.9994C21.9997 11.6487 21.8764 11.3092 21.6517 11.0399C21.427 10.7706 21.115 10.5885 20.77 10.5254C20.5573 10.4868 20.3628 10.3803 20.2156 10.2218C20.0685 10.0634 19.9767 9.86146 19.954 9.64642C19.8214 8.38201 19.3878 7.16776 18.6896 6.10527C17.9915 5.04279 17.049 4.16296 15.941 3.53942C15.6582 4.42462 15.2803 5.27659 14.814 6.08042C13.5161 7.92058 11.8227 9.44689 9.85804 10.5474C10.1575 10.6209 10.4271 10.785 10.6299 11.0172C10.8328 11.2494 10.9592 11.5385 10.9919 11.8452C11.0246 12.1518 10.962 12.461 10.8126 12.7308C10.6632 13.0006 10.4343 13.2178 10.1571 13.3528C9.87985 13.4878 9.56773 13.534 9.26324 13.4853C8.95875 13.4365 8.67668 13.2951 8.45545 13.0803C8.23421 12.8655 8.08456 12.5877 8.02687 12.2848C7.96918 11.9819 8.00625 11.6685 8.13304 11.3874C5.83386 12.3184 3.34784 12.6952 0.876039 12.4874C0.670011 12.4598 0.477709 12.3687 0.325876 12.2267C0.174044 12.0847 0.0702297 11.899 0.0288708 11.6952C-0.0124881 11.4915 0.0106646 11.28 0.095109 11.09C0.179553 10.9001 0.321092 10.7412 0.500039 10.6354C1.10457 9.94952 1.55442 9.14157 1.81904 8.26642C3.12404 5.17342 5.10004 0.499418 12 0.499418C14.3544 0.49384 16.6348 1.32147 18.4376 2.83578C20.2403 4.3501 21.4492 6.45342 21.85 8.77342C22.4864 9.03946 23.03 9.4876 23.4125 10.0615C23.795 10.6355 23.9994 11.3097 24 11.9994C23.9983 12.8304 23.6949 13.6325 23.146 14.2564C23.153 14.2824 23.171 14.3034 23.176 14.3314L23.925 18.6434ZM16 11.9994C16 11.7027 15.9121 11.4127 15.7472 11.1661C15.5824 10.9194 15.3482 10.7271 15.0741 10.6136C14.8 10.5001 14.4984 10.4704 14.2074 10.5282C13.9164 10.5861 13.6492 10.729 13.4394 10.9388C13.2296 11.1485 13.0867 11.4158 13.0289 11.7068C12.971 11.9978 13.0007 12.2994 13.1142 12.5734C13.2278 12.8475 13.42 13.0818 13.6667 13.2466C13.9134 13.4114 14.2034 13.4994 14.5 13.4994C14.8979 13.4994 15.2794 13.3414 15.5607 13.0601C15.842 12.7788 16 12.3972 16 11.9994Z" fill="#004330"/>
</g>
<defs>
<clipPath id="clip0_273_1393">
<rect width="24" height="24" fill="white" transform="translate(0 0.5)"/>
</clipPath>
</defs>
</svg>
