<svg width="24" height="25" viewBox="0 0 24 25" fill="none" xmlns="http://www.w3.org/2000/svg">
<g clip-path="url(#clip0_449_3240)">
<path d="M14.09 16.5H15C21.643 16.5 24 13 24 10C23.999 9.18703 23.715 8.39972 23.1968 7.77328C22.6786 7.14684 21.9584 6.72035 21.16 6.56704C21.32 6.24388 21.4567 5.9097 21.569 5.56704C21.7436 4.98198 21.7779 4.36403 21.6691 3.76326C21.5603 3.16248 21.3116 2.59577 20.943 2.10904C20.5711 1.60748 20.0864 1.20048 19.528 0.92096C18.9697 0.641441 18.3534 0.497247 17.729 0.50004H6.271C5.64635 0.497594 5.02989 0.64225 4.47153 0.9223C3.91317 1.20235 3.42859 1.60992 3.057 2.11204C2.68841 2.59877 2.43966 3.16548 2.3309 3.76626C2.22214 4.36703 2.25643 4.98498 2.431 5.57004C2.54332 5.9127 2.68 6.24688 2.84 6.57004C2.04208 6.72325 1.32232 7.1493 0.804145 7.77512C0.285973 8.40094 0.00167365 9.18754 0 10C0 13 2.357 16.5 9 16.5H9.91C9.96825 16.8036 9.99838 17.1119 10 17.421V20.5C10.0172 20.7671 9.97723 21.0348 9.88279 21.2853C9.78836 21.5357 9.64162 21.7631 9.45237 21.9524C9.26311 22.1417 9.03568 22.2884 8.78524 22.3828C8.53479 22.4773 8.2671 22.5172 8 22.5H6C5.73478 22.5 5.48043 22.6054 5.29289 22.7929C5.10536 22.9805 5 23.2348 5 23.5C5 23.7653 5.10536 24.0196 5.29289 24.2071C5.48043 24.3947 5.73478 24.5 6 24.5H18C18.2652 24.5 18.5196 24.3947 18.7071 24.2071C18.8946 24.0196 19 23.7653 19 23.5C19 23.2348 18.8946 22.9805 18.7071 22.7929C18.5196 22.6054 18.2652 22.5 18 22.5H16.006C15.7385 22.5178 15.4703 22.4783 15.2193 22.3841C14.9682 22.29 14.7402 22.1434 14.5503 21.9541C14.3605 21.7648 14.2132 21.5372 14.1183 21.2864C14.0234 21.0357 13.9831 20.7676 14 20.5V17.42C14.0017 17.1113 14.0318 16.8033 14.09 16.5V16.5ZM15.726 13.649C17.4395 12.1311 18.9218 10.3708 20.126 8.42404C20.2446 8.47315 20.3716 8.49895 20.5 8.50004C20.8978 8.50004 21.2794 8.65808 21.5607 8.93938C21.842 9.22068 22 9.60222 22 10C22 12.176 20.161 14.5 15 14.5H14.944C15.1695 14.1859 15.432 13.9002 15.726 13.649V13.649ZM9 14.5C3.839 14.5 2 12.176 2 10C2 9.60222 2.15804 9.22068 2.43934 8.93938C2.72064 8.65808 3.10218 8.50004 3.5 8.50004C3.62873 8.49908 3.75606 8.47327 3.875 8.42404C5.0792 10.3708 6.56154 12.1311 8.275 13.649C8.5686 13.9003 8.83083 14.186 9.056 14.5H9Z" fill="white"/>
</g>
<defs>
<clipPath id="clip0_449_3240">
<rect width="24" height="24" fill="white" transform="translate(0 0.5)"/>
</clipPath>
</defs>
</svg>
