<svg width="24" height="25" viewBox="0 0 24 25" fill="none" xmlns="http://www.w3.org/2000/svg">
<g clip-path="url(#clip0_273_1401)">
<path d="M22.9419 7.33693L20.7599 5.15393L21.7069 4.20693C21.8024 4.11468 21.8786 4.00434 21.931 3.88233C21.9834 3.76033 22.011 3.62911 22.0121 3.49633C22.0133 3.36355 21.988 3.23187 21.9377 3.10897C21.8874 2.98608 21.8131 2.87443 21.7193 2.78053C21.6254 2.68664 21.5137 2.61239 21.3908 2.56211C21.2679 2.51183 21.1362 2.48652 21.0035 2.48768C20.8707 2.48883 20.7395 2.51642 20.6175 2.56883C20.4955 2.62124 20.3851 2.69742 20.2929 2.79293L19.3459 3.73993L17.1629 1.55793C16.4748 0.90225 15.5608 0.536499 14.6104 0.536499C13.6599 0.536499 12.7459 0.90225 12.0579 1.55793C11.7224 1.89309 11.4563 2.29108 11.2748 2.72914C11.0932 3.16719 10.9998 3.63674 10.9998 4.11093C10.9998 4.58512 11.0932 5.05466 11.2748 5.49272C11.4563 5.93078 11.7224 6.32876 12.0579 6.66393L14.2399 8.84593L8.34586 14.7399L6.16286 12.5579C5.4748 11.9022 4.5608 11.5365 3.61036 11.5365C2.65992 11.5365 1.74592 11.9022 1.05786 12.5579C0.722418 12.8931 0.456315 13.2911 0.274759 13.7291C0.093204 14.1672 -0.000244141 14.6367 -0.000244141 15.1109C-0.000244141 15.5851 0.093204 16.0547 0.274759 16.4927C0.456315 16.9308 0.722418 17.3288 1.05786 17.6639L3.23986 19.8459L2.29286 20.7929C2.19735 20.8852 2.12117 20.9955 2.06876 21.1175C2.01635 21.2395 1.98876 21.3707 1.98761 21.5035C1.98646 21.6363 2.01176 21.768 2.06204 21.8909C2.11232 22.0138 2.18657 22.1254 2.28046 22.2193C2.37436 22.3132 2.48601 22.3875 2.60891 22.4377C2.7318 22.488 2.86348 22.5133 2.99626 22.5122C3.12904 22.511 3.26026 22.4834 3.38226 22.431C3.50427 22.3786 3.61461 22.3024 3.70686 22.2069L4.65386 21.2599L6.83686 23.4419C7.17201 23.7772 7.56993 24.0432 8.00789 24.2247C8.44586 24.4061 8.91529 24.4995 9.38936 24.4995C9.86343 24.4995 10.3329 24.4061 10.7708 24.2247C11.2088 24.0432 11.6067 23.7772 11.9419 23.4419C12.2773 23.1068 12.5434 22.7089 12.7249 22.271C12.9064 21.833 12.9999 21.3635 12.9999 20.8894C12.9999 20.4153 12.9064 19.9459 12.7249 19.5079C12.5434 19.0699 12.2773 18.672 11.9419 18.3369L9.75986 16.1549L15.6599 10.2599L17.8419 12.4419C18.177 12.7772 18.5749 13.0432 19.0129 13.2247C19.4509 13.4061 19.9203 13.4995 20.3944 13.4995C20.8684 13.4995 21.3379 13.4061 21.7758 13.2247C22.2138 13.0432 22.6117 12.7772 22.9469 12.4419C23.2823 12.1068 23.5484 11.7089 23.7299 11.271C23.9114 10.833 24.0049 10.3635 24.0049 9.88943C24.0049 9.41532 23.9114 8.94586 23.7299 8.50788C23.5484 8.06991 23.2823 7.67201 22.9469 7.33693H22.9419Z" fill="#004330"/>
</g>
<defs>
<clipPath id="clip0_273_1401">
<rect width="24" height="24" fill="white" transform="translate(0 0.5)"/>
</clipPath>
</defs>
</svg>
