<svg width="24" height="22" viewBox="0 0 24 22" fill="none" xmlns="http://www.w3.org/2000/svg">
<path d="M23.2668 8.40753C22.3644 6.92978 21.2261 5.6098 19.897 4.49998L22.696 1.70104C23.0795 1.30392 23.0685 0.671106 22.6714 0.287576C22.284 -0.0865815 21.6699 -0.0865815 21.2825 0.287576L18.2386 3.33543C16.3517 2.21469 14.1945 1.63052 11.9999 1.64607C5.81123 1.64607 2.28454 5.88252 0.733127 8.40758C-0.244416 9.98869 -0.244416 11.9865 0.733127 13.5677C1.63556 15.0454 2.77387 16.3654 4.10289 17.4752L1.30395 20.2742C0.906828 20.6577 0.895817 21.2906 1.27935 21.6876C1.66288 22.0848 2.29573 22.0958 2.69281 21.7122C2.70115 21.7042 2.70935 21.696 2.71741 21.6876L5.76826 18.6368C7.65282 19.7574 9.80743 20.3425 11.9999 20.3291C18.1887 20.3291 21.7154 16.0927 23.2668 13.5676C24.2444 11.9865 24.2444 9.98869 23.2668 8.40753ZM6.00222 10.9876C5.99655 7.68063 8.67273 4.99522 11.9797 4.98955C13.2309 4.98739 14.4514 5.3773 15.4697 6.10443L14.0182 7.55589C13.4089 7.18844 12.7115 6.99257 12 6.9891C9.79169 6.9891 8.00149 8.7793 8.00149 10.9876C8.00496 11.6991 8.20082 12.3965 8.56828 13.0059L7.11682 14.4573C6.39203 13.4455 6.00227 12.2322 6.00222 10.9876ZM12 16.9854C10.7554 16.9853 9.54208 16.5956 8.53028 15.8708L9.98174 14.4193C10.5911 14.7868 11.2885 14.9826 12 14.9861C14.2083 14.9861 15.9985 13.1959 15.9985 10.9876C15.995 10.2761 15.7992 9.57869 15.4317 8.96935L16.8832 7.51789C18.8049 10.2091 18.1812 13.9487 15.49 15.8705C14.4717 16.5976 13.2512 16.9875 12 16.9854Z" fill="#026247"/>
</svg>
