<svg width="24" height="24" viewBox="0 0 24 24" fill="none" xmlns="http://www.w3.org/2000/svg">
<g clip-path="url(#clip0_449_3227)">
<path d="M12 14.9922C10.3432 14.9922 9 16.3353 9 17.9922V23.9922H15V17.9922C15 16.3353 13.6568 14.9922 12 14.9922Z" fill="white"/>
<path d="M17 17.9924V23.9924H21C22.6568 23.9924 24 22.6492 24 20.9924V11.8714C24.0002 11.3519 23.7983 10.8527 23.437 10.4794L14.939 1.29236C13.4396 -0.329979 10.9089 -0.429588 9.28655 1.06985C9.20948 1.1411 9.13523 1.2153 9.06403 1.29236L0.581016 10.4764C0.208734 10.8512 -0.000140554 11.3581 7.09607e-08 11.8864V20.9924C7.09607e-08 22.6492 1.34316 23.9924 3 23.9924H6.99998V17.9924C7.01869 15.2656 9.22027 13.0388 11.8784 12.9747C14.6255 12.9084 16.9791 15.1731 17 17.9924Z" fill="white"/>
<path d="M12 14.9922C10.3432 14.9922 9 16.3353 9 17.9922V23.9922H15V17.9922C15 16.3353 13.6568 14.9922 12 14.9922Z" fill="white"/>
</g>
<defs>
<clipPath id="clip0_449_3227">
<rect width="24" height="24" fill="white"/>
</clipPath>
</defs>
</svg>
