<svg width="17" height="16" viewBox="0 0 17 16" fill="none" xmlns="http://www.w3.org/2000/svg">
<g clip-path="url(#clip0_303_3736)">
<path d="M4.41215 10.3887C3.70904 9.73924 3.17274 8.92995 2.84862 8.02933C2.52451 7.12871 2.42213 6.16327 2.55015 5.2147C2.67672 4.25288 3.03464 3.33609 3.5932 2.54291C4.15177 1.74973 4.89434 1.10383 5.75726 0.660548C6.62019 0.21727 7.57773 -0.0101573 8.54781 -0.00224163C9.5179 0.00567404 10.4716 0.248697 11.3272 0.705997C12.1827 1.1633 12.9147 1.82124 13.4602 2.62342C14.0058 3.42561 14.3487 4.34812 14.4595 5.31188C14.5704 6.27564 14.4459 7.25191 14.0968 8.15702C13.7476 9.06213 13.1842 9.86908 12.4548 10.5087C11.9851 10.9125 11.6205 11.4243 11.3921 12H9.16681V7.2107C9.55542 7.07331 9.89209 6.81921 10.1308 6.48317C10.3694 6.14712 10.4984 5.74554 10.5001 5.33337C10.5001 5.15656 10.4299 4.98699 10.3049 4.86196C10.1799 4.73694 10.0103 4.6667 9.83348 4.6667C9.65667 4.6667 9.4871 4.73694 9.36207 4.86196C9.23705 4.98699 9.16681 5.15656 9.16681 5.33337C9.16681 5.51018 9.09657 5.67975 8.97155 5.80477C8.84653 5.9298 8.67696 6.00003 8.50015 6.00003C8.32333 6.00003 8.15377 5.9298 8.02874 5.80477C7.90372 5.67975 7.83348 5.51018 7.83348 5.33337C7.83348 5.15656 7.76324 4.98699 7.63822 4.86196C7.51319 4.73694 7.34362 4.6667 7.16681 4.6667C6.99 4.6667 6.82043 4.73694 6.69541 4.86196C6.57038 4.98699 6.50015 5.15656 6.50015 5.33337C6.50185 5.74554 6.63087 6.14712 6.86954 6.48317C7.10821 6.81921 7.44487 7.07331 7.83348 7.2107V12H5.54215C5.28728 11.3871 4.90163 10.8371 4.41215 10.3887ZM5.83348 13.3334V13.54C5.83418 14.1923 6.09359 14.8176 6.55478 15.2787C7.01596 15.7399 7.64126 15.9993 8.29348 16H8.70681C9.35903 15.9993 9.98433 15.7399 10.4455 15.2787C10.9067 14.8176 11.1661 14.1923 11.1668 13.54V13.3334H5.83348Z" fill="#004330"/>
</g>
<defs>
<clipPath id="clip0_303_3736">
<rect width="16" height="16" fill="white" transform="translate(0.5)"/>
</clipPath>
</defs>
</svg>
