<svg width="14" height="16" viewBox="0 0 14 16" fill="none" xmlns="http://www.w3.org/2000/svg">
<path d="M11.6667 5.616V4.66666C11.6667 2.08934 9.57737 0 7.00003 0C4.42269 0 2.33337 2.08934 2.33337 4.66666V5.616C1.12006 6.14553 0.335124 7.34284 0.333374 8.66666V12.6667C0.335562 14.5067 1.82666 15.9978 3.66669 16H10.3333C12.1734 15.9978 13.6645 14.5067 13.6667 12.6667V8.66666C13.665 7.34284 12.88 6.14553 11.6667 5.616ZM7.66669 11.3333C7.66669 11.7015 7.36822 12 7.00003 12C6.63184 12 6.33337 11.7015 6.33337 11.3333V10C6.33337 9.63181 6.63184 9.33334 7.00003 9.33334C7.36822 9.33334 7.66669 9.63181 7.66669 10V11.3333V11.3333ZM10.3334 5.33334H3.66669V4.66669C3.66669 2.82575 5.15906 1.33334 7.00003 1.33334C8.841 1.33334 10.3334 2.82572 10.3334 4.66669V5.33334V5.33334Z" fill="#374957"/>
</svg>
