<svg width="15" height="15" viewBox="0 0 15 15" fill="none" xmlns="http://www.w3.org/2000/svg">
<g clip-path="url(#clip0_273_1845)">
<path d="M0.829251 7.75015L3.05425 9.37516L2.20925 11.992C2.0727 12.3979 2.07097 12.837 2.20432 13.244C2.33767 13.6509 2.59897 14.0038 2.94925 14.2502C3.29353 14.5044 3.71075 14.6406 4.13872 14.6385C4.5667 14.6363 4.98253 14.4959 5.32425 14.2383L7.49988 12.637L9.67613 14.2364C10.0198 14.4892 10.4347 14.6265 10.8614 14.6286C11.288 14.6306 11.7043 14.4974 12.0504 14.248C12.3965 13.9986 12.6546 13.6458 12.7876 13.2405C12.9205 12.8351 12.9216 12.398 12.7905 11.992L11.9455 9.37516L14.1705 7.75015C14.5137 7.49922 14.7689 7.14625 14.8995 6.74165C15.0301 6.33705 15.0295 5.90152 14.8978 5.49727C14.7661 5.09302 14.51 4.74073 14.1661 4.49072C13.8223 4.24071 13.4082 4.10576 12.983 4.10515H10.2499L9.4205 1.52015C9.29008 1.11325 9.03379 0.758288 8.68861 0.506445C8.34342 0.254602 7.92717 0.118896 7.49988 0.118896C7.07258 0.118896 6.65633 0.254602 6.31115 0.506445C5.96596 0.758288 5.70968 1.11325 5.57925 1.52015L4.74988 4.10515H2.01925C1.59409 4.10576 1.18 4.24071 0.836114 4.49072C0.492231 4.74073 0.236152 5.09302 0.104452 5.49727C-0.0272473 5.90152 -0.0278302 6.33705 0.102787 6.74165C0.233404 7.14625 0.488539 7.49922 0.831751 7.75015H0.829251Z" fill="#374957"/>
</g>
<defs>
<clipPath id="clip0_273_1845">
<rect width="15" height="15" fill="white"/>
</clipPath>
</defs>
</svg>
