<svg width="40" height="40" viewBox="0 0 40 40" fill="none" xmlns="http://www.w3.org/2000/svg">
<path d="M23.1016 40H16.8983C12.9968 40.0172 9.24493 38.5004 6.45159 35.7767C3.54046 32.8426 1.4156 29.2222 0.273252 25.25C-0.0217273 24.254 -0.0805422 23.203 0.101473 22.1803C0.283488 21.1576 0.701325 20.1914 1.32183 19.3583C1.94234 18.5253 2.74845 17.8483 3.67621 17.381C4.60396 16.9138 5.62783 16.6692 6.66659 16.6667H33.3333C34.3722 16.6691 35.3963 16.9135 36.3242 17.3806C37.2522 17.8477 38.0586 18.5246 38.6794 19.3577C39.3003 20.1907 39.7184 21.1569 39.9008 22.1797C40.0831 23.2025 40.0246 24.2537 39.7299 25.25C38.5883 29.2229 36.4627 32.8436 33.5499 35.7767C30.7566 38.5014 27.0037 40.0183 23.1016 40V40ZM26.6666 10C26.6695 9.03349 26.4806 8.07601 26.1106 7.1831C25.7407 6.29018 25.1972 5.47959 24.5116 4.79833C24.1362 4.4247 23.8387 3.98022 23.6364 3.49069C23.4341 3.00116 23.3311 2.47634 23.3333 1.94667V1.66667C23.3333 1.22464 23.1577 0.800716 22.8451 0.488155C22.5325 0.175595 22.1086 0 21.6666 0C21.2246 0 20.8006 0.175595 20.4881 0.488155C20.1755 0.800716 19.9999 1.22464 19.9999 1.66667V1.94667C19.9971 2.9134 20.1862 3.87109 20.5561 4.76425C20.926 5.65742 21.4694 6.46833 22.1549 7.15C22.5302 7.52344 22.8275 7.96765 23.0298 8.45687C23.2321 8.9461 23.3352 9.47061 23.3333 10C23.3333 10.442 23.5088 10.866 23.8214 11.1785C24.134 11.4911 24.5579 11.6667 24.9999 11.6667C25.4419 11.6667 25.8659 11.4911 26.1784 11.1785C26.491 10.866 26.6666 10.442 26.6666 10ZM19.9999 11.6667V11.1533C20.0025 10.187 19.8136 9.22978 19.444 8.33694C19.0744 7.44411 18.5314 6.63339 17.8466 5.95167C17.4717 5.57896 17.1743 5.13562 16.9718 4.64729C16.7692 4.15897 16.6655 3.63533 16.6666 3.10667V1.66667C16.6666 1.22464 16.491 0.800716 16.1784 0.488155C15.8659 0.175595 15.4419 0 14.9999 0C14.5579 0 14.134 0.175595 13.8214 0.488155C13.5088 0.800716 13.3333 1.22464 13.3333 1.66667V3.10667C13.3308 4.07311 13.52 5.03045 13.8899 5.9233C14.2598 6.81616 14.803 7.6268 15.4883 8.30833C15.8629 8.68118 16.1599 9.12458 16.3622 9.6129C16.5644 10.1012 16.6679 10.6248 16.6666 11.1533V11.6667C16.6666 12.1087 16.8422 12.5326 17.1547 12.8452C17.4673 13.1577 17.8912 13.3333 18.3333 13.3333C18.7753 13.3333 19.1992 13.1577 19.5118 12.8452C19.8243 12.5326 19.9999 12.1087 19.9999 11.6667Z" fill="#026247"/>
</svg>
