<svg width="48" height="48" viewBox="0 0 48 48" fill="none" xmlns="http://www.w3.org/2000/svg">
<circle cx="24" cy="24" r="24" fill="#026247"/>
<path d="M18.079 34.5C18.0793 34.1023 18.2376 33.7211 18.519 33.44L26.191 25.768C26.4232 25.5359 26.6074 25.2602 26.7331 24.9569C26.8588 24.6535 26.9234 24.3284 26.9234 24C26.9234 23.6717 26.8588 23.3465 26.7331 23.0432C26.6074 22.7398 26.4232 22.4642 26.191 22.232L18.529 14.565C18.2557 14.2821 18.1046 13.9032 18.108 13.5099C18.1114 13.1166 18.2691 12.7404 18.5473 12.4623C18.8254 12.1842 19.2016 12.0264 19.5949 12.023C19.9882 12.0196 20.3671 12.1708 20.65 12.444L28.312 20.105C29.3422 21.1373 29.9208 22.5361 29.9208 23.9945C29.9208 25.4529 29.3422 26.8518 28.312 27.884L20.64 35.556C20.4305 35.7656 20.1636 35.9085 19.873 35.9666C19.5824 36.0247 19.2811 35.9954 19.0072 35.8824C18.7332 35.7695 18.4988 35.5779 18.3336 35.3319C18.1684 35.0858 18.0798 34.7964 18.079 34.5Z" fill="white"/>
</svg>
