<svg width="48" height="48" viewBox="0 0 48 48" fill="none" xmlns="http://www.w3.org/2000/svg">
<circle cx="24" cy="24" r="24" fill="#FFA4BC"/>
<g clip-path="url(#clip0_273_1370)">
<path d="M24.2638 24C27.7595 24 30.5934 21.1969 30.5934 17.7391C30.5934 14.2814 27.7595 11.4783 24.2638 11.4783C20.768 11.4783 17.9341 14.2814 17.9341 17.7391C17.9341 21.1969 20.768 24 24.2638 24Z" fill="#026247"/>
<path d="M24.2638 26.0861C19.0225 26.0918 14.7751 30.2931 14.7693 35.4774C14.7693 36.0537 15.2416 36.5208 15.8242 36.5208H32.7033C33.2859 36.5208 33.7582 36.0537 33.7582 35.4774C33.7525 30.2931 29.5051 26.0918 24.2638 26.0861Z" fill="#026247"/>
</g>
<defs>
<clipPath id="clip0_273_1370">
<rect width="25.3187" height="25.0435" fill="white" transform="translate(11.6045 11.4783)"/>
</clipPath>
</defs>
</svg>
