<svg width="31" height="33" viewBox="0 0 31 33" fill="none" xmlns="http://www.w3.org/2000/svg">
<path d="M24.25 9.83337C24.075 9.83337 23.9375 9.98004 23.9375 10.1667V16.5C23.9375 17.0467 23.5125 17.5 23 17.5C22.4875 17.5 22.0625 17.0467 22.0625 16.5V10.1667C22.0625 9.98004 21.925 9.83337 21.75 9.83337H19.25C19.075 9.83337 18.9375 9.98004 18.9375 10.1667V13.3C18.9375 13.8467 18.5125 14.3 18 14.3C17.4875 14.3 17.0625 13.8467 17.0625 13.3V10.1667C17.0625 9.98004 16.925 9.83337 16.75 9.83337H14.3C14.125 9.83337 13.9875 9.98004 13.9875 10.1667L13.9375 16.5134C13.9375 17.06 13.5125 17.5 13 17.5C13 17.5 13 17.5 12.9875 17.5C12.475 17.5 12.0625 17.0467 12.0625 16.4867L12.1125 10.1667C12.1125 9.98004 11.975 9.83337 11.8 9.83337H9.25C9.075 9.83337 8.9375 9.98004 8.9375 10.1667V14.9C8.9375 15.4467 8.5125 15.9 8 15.9C7.4875 15.9 7.0625 15.4467 7.0625 14.9V10.1667C7.0625 9.98004 6.925 9.83337 6.75 9.83337C4.675 9.83337 3 11.62 3 13.8334V19.1667C3 21.38 4.675 23.1667 6.75 23.1667H24.25C26.325 23.1667 28 21.38 28 19.1667V13.8334C28 11.62 26.325 9.83337 24.25 9.83337Z" fill="#004330"/>
</svg>
