<svg width="36" height="36" viewBox="0 0 36 36" fill="none" xmlns="http://www.w3.org/2000/svg">
<path d="M2.41023 27C3.65097 29.1534 6.4025 29.8932 8.55589 28.6525C8.55737 28.6516 8.55878 28.6508 8.56025 28.65L9.22773 28.2644C10.4877 29.3425 11.936 30.1785 13.4997 30.7304V31.5C13.4997 33.9853 15.5144 36 17.9997 36C20.485 36 22.4997 33.9853 22.4997 31.5V30.7305C24.0636 30.1776 25.512 29.3406 26.7717 28.2615L27.4422 28.6485C29.5961 29.8911 32.3496 29.1524 33.5922 26.9985C34.8348 24.8446 34.0961 22.0911 31.9422 20.8484L31.2762 20.4645C31.576 18.8331 31.576 17.1608 31.2762 15.5294L31.9422 15.1455C34.0961 13.9028 34.8348 11.1494 33.5922 8.99543C32.3496 6.84155 29.5961 6.10277 27.4422 7.34541L26.7747 7.73093C25.5134 6.65423 24.0642 5.81977 22.4997 5.2695V4.5C22.4997 2.01473 20.485 0 17.9997 0C15.5144 0 13.4997 2.01473 13.4997 4.5V5.2695C11.9358 5.82237 10.4874 6.65937 9.22773 7.73852L8.55723 7.35005C6.40328 6.10734 3.64984 6.84612 2.40721 9C1.16457 11.1539 1.90328 13.9074 4.05723 15.15L4.72323 15.534C4.42342 17.1653 4.42342 18.8376 4.72323 20.469L4.05723 20.853C1.90925 22.0989 1.17294 24.847 2.41023 27ZM17.9997 12C21.3134 12 23.9997 14.6863 23.9997 18C23.9997 21.3137 21.3134 24 17.9997 24C14.686 24 11.9997 21.3137 11.9997 18C11.9997 14.6863 14.686 12 17.9997 12Z" fill="#026247"/>
</svg>
