<svg width="15" height="15" viewBox="0 0 15 15" fill="none" xmlns="http://www.w3.org/2000/svg">
<path d="M0.829251 7.83121L3.05425 9.45621L2.20925 12.0731C2.0727 12.479 2.07097 12.9181 2.20432 13.325C2.33767 13.7319 2.59897 14.0849 2.94925 14.3312C3.29353 14.5854 3.71075 14.7216 4.13872 14.7195C4.5667 14.7174 4.98253 14.577 5.32425 14.3193L7.49988 12.7181L9.67613 14.3175C10.0198 14.5702 10.4347 14.7075 10.8614 14.7096C11.288 14.7117 11.7043 14.5784 12.0504 14.329C12.3965 14.0796 12.6546 13.7269 12.7876 13.3215C12.9205 12.9162 12.9216 12.4791 12.7905 12.0731L11.9455 9.45621L14.1705 7.83121C14.5137 7.58028 14.7689 7.2273 14.8995 6.8227C15.0301 6.4181 15.0295 5.98258 14.8978 5.57833C14.7661 5.17408 14.51 4.82179 14.1661 4.57177C13.8223 4.32176 13.4082 4.18682 12.983 4.18621H10.2499L9.4205 1.60121C9.29008 1.19431 9.03379 0.839343 8.68861 0.5875C8.34342 0.335657 7.92717 0.199951 7.49988 0.199951C7.07258 0.199951 6.65633 0.335657 6.31115 0.5875C5.96596 0.839343 5.70968 1.19431 5.57925 1.60121L4.74988 4.18621H2.01925C1.59409 4.18682 1.18 4.32176 0.836114 4.57177C0.492231 4.82179 0.236152 5.17408 0.104452 5.57833C-0.0272473 5.98258 -0.0278302 6.4181 0.102787 6.8227C0.233404 7.2273 0.488539 7.58028 0.831751 7.83121H0.829251Z" fill="#026247"/>
</svg>
