<svg width="15" height="15" viewBox="0 0 15 15" fill="none" xmlns="http://www.w3.org/2000/svg">
<g clip-path="url(#clip0_595_2474)">
<path d="M0.829251 7.75022L3.05425 9.37522L2.20925 11.9921C2.0727 12.398 2.07097 12.8371 2.20432 13.244C2.33767 13.651 2.59897 14.0039 2.94925 14.2502C3.29353 14.5045 3.71075 14.6407 4.13872 14.6385C4.5667 14.6364 4.98253 14.496 5.32425 14.2383L7.49988 12.6371L9.67613 14.2365C10.0198 14.4892 10.4347 14.6265 10.8614 14.6286C11.288 14.6307 11.7043 14.4975 12.0504 14.248C12.3965 13.9986 12.6546 13.6459 12.7876 13.2405C12.9205 12.8352 12.9216 12.3981 12.7905 11.9921L11.9455 9.37522L14.1705 7.75022C14.5137 7.49928 14.7689 7.14631 14.8995 6.74171C15.0301 6.33711 15.0295 5.90158 14.8978 5.49733C14.7661 5.09308 14.51 4.74079 14.1661 4.49078C13.8223 4.24077 13.4082 4.10582 12.983 4.10522H10.2499L9.4205 1.52022C9.29008 1.11331 9.03379 0.758349 8.68861 0.506506C8.34342 0.254664 7.92717 0.118958 7.49988 0.118958C7.07258 0.118958 6.65633 0.254664 6.31115 0.506506C5.96596 0.758349 5.70968 1.11331 5.57925 1.52022L4.74988 4.10522H2.01925C1.59409 4.10582 1.18 4.24077 0.836114 4.49078C0.492231 4.74079 0.236152 5.09308 0.104452 5.49733C-0.0272473 5.90158 -0.0278302 6.33711 0.102787 6.74171C0.233404 7.14631 0.488539 7.49928 0.831751 7.75022H0.829251Z" fill="white"/>
</g>
<defs>
<clipPath id="clip0_595_2474">
<rect width="15" height="15" fill="white"/>
</clipPath>
</defs>
</svg>
