<svg width="25" height="25" viewBox="0 0 25 25" fill="none" xmlns="http://www.w3.org/2000/svg">
<g clip-path="url(#clip0_487_2400)">
<path d="M12.895 10.5H3.26296L2.95696 8.056C2.87909 7.62337 2.89657 7.17897 3.00818 6.7538C3.1198 6.32863 3.32285 5.93293 3.60317 5.59434C3.8835 5.25574 4.23433 4.9824 4.6312 4.79339C5.02807 4.60438 5.4614 4.50425 5.90096 4.5H13.561L12.895 10.5ZM13.895 19.61C13.8805 19.7405 13.8405 19.8669 13.7772 19.982C13.7139 20.0971 13.6286 20.1986 13.526 20.2806C13.4235 20.3627 13.3058 20.4238 13.1797 20.4604C13.0536 20.497 12.9215 20.5084 12.791 20.494C12.6604 20.4796 12.534 20.4395 12.4189 20.3762C12.3039 20.3129 12.2024 20.2276 12.1203 20.1251C12.0382 20.0226 11.9771 19.9049 11.9405 19.7788C11.9039 19.6526 11.8925 19.5205 11.907 19.39L12.673 12.5H3.51395L4.46896 20.122C4.62216 21.3302 5.21036 22.4411 6.12349 23.247C7.03663 24.0528 8.21211 24.4982 9.42996 24.5H16.371C17.589 24.498 18.7646 24.0524 19.6779 23.2464C20.5912 22.4404 21.1795 21.3294 21.333 20.121L22.285 12.5H14.685L13.895 19.61ZM22.535 10.5L22.828 8.153C22.9258 7.71443 22.9238 7.2595 22.8222 6.82179C22.7206 6.38408 22.522 5.97478 22.2411 5.62412C21.9601 5.27346 21.6039 4.99039 21.1989 4.79582C20.7939 4.60126 20.3503 4.50016 19.901 4.5H15.574L14.908 10.5H22.535ZM15.701 3.39C15.728 3.146 15.8438 2.92045 16.0263 2.75632C16.2089 2.5922 16.4455 2.50097 16.691 2.5H20.901C21.1662 2.5 21.4205 2.39464 21.6081 2.20711C21.7956 2.01957 21.901 1.76522 21.901 1.5C21.901 1.23478 21.7956 0.98043 21.6081 0.792893C21.4205 0.605357 21.1662 0.5 20.901 0.5H16.691C15.9527 0.500168 15.2405 0.772519 14.6905 1.26494C14.1405 1.75737 13.7914 2.43529 13.71 3.169L13.562 4.5H15.574L15.701 3.39Z" fill="#026247"/>
</g>
<defs>
<clipPath id="clip0_487_2400">
<rect width="24" height="24" fill="white" transform="translate(0.901123 0.5)"/>
</clipPath>
</defs>
</svg>
