<svg width="25" height="24" viewBox="0 0 25 24" fill="none" xmlns="http://www.w3.org/2000/svg">
<g clip-path="url(#clip0_266_1269)">
<path d="M14.2031 2C14.2031 2.53043 13.9924 3.03914 13.6173 3.41421C13.2422 3.78929 12.7335 4 12.2031 4C11.6727 4 11.164 3.78929 10.7889 3.41421C10.4138 3.03914 10.2031 2.53043 10.2031 2C10.2031 1.46957 10.4138 0.960859 10.7889 0.585786C11.164 0.210714 11.6727 0 12.2031 0C12.7335 0 13.2422 0.210714 13.6173 0.585786C13.9924 0.960859 14.2031 1.46957 14.2031 2ZM20.0511 18.636C19.4377 18.8814 18.7816 19.0024 18.121 18.9919C17.4604 18.9814 16.8084 18.8397 16.2031 18.575C15.5723 18.8503 14.8914 18.9924 14.2031 18.9924C13.5148 18.9924 12.8339 18.8503 12.2031 18.575C11.5723 18.8503 10.8914 18.9924 10.2031 18.9924C9.5148 18.9924 8.83392 18.8503 8.20309 18.575C7.5972 18.8396 6.94479 18.9813 6.28371 18.9918C5.62263 19.0022 4.96606 18.8813 4.35209 18.636C3.83036 18.8404 3.27953 18.9609 2.72009 18.993L2.87709 19.875C3.0814 21.0324 3.68741 22.0805 4.58846 22.8351C5.48951 23.5896 6.62784 24.0021 7.80309 24H16.6031C17.7778 24.0016 18.9153 23.5888 19.8156 22.8343C20.716 22.0797 21.3213 21.0319 21.5251 19.875L21.6821 18.993C21.1229 18.9614 20.5724 18.8408 20.0511 18.636ZM23.7271 11.412C23.0004 9.66171 21.8657 8.11053 20.4177 6.88781C18.9697 5.6651 17.2504 4.80629 15.4031 4.383C15.0289 4.87631 14.5456 5.27633 13.9911 5.55172C13.4365 5.82712 12.8258 5.97043 12.2066 5.97043C11.5874 5.97043 10.9767 5.82712 10.4221 5.55172C9.86756 5.27633 9.38427 4.87631 9.01009 4.383C7.1617 4.80576 5.4412 5.66441 3.99215 6.88733C2.54309 8.11024 1.40749 9.66195 0.68009 11.413C0.349039 12.3949 0.18773 13.4259 0.20309 14.462C0.185217 14.7871 0.233526 15.1125 0.34509 15.4184C0.456655 15.7243 0.629153 16.0044 0.852137 16.2417C1.07512 16.479 1.34395 16.6685 1.64234 16.7989C1.94073 16.9292 2.26248 16.9976 2.58809 17C3.04209 17 4.15109 16.692 4.27309 16.277C4.82374 16.7455 5.52587 16.9981 6.24881 16.9876C6.97175 16.9771 7.66626 16.7043 8.20309 16.22C8.7521 16.714 9.46453 16.9874 10.2031 16.9874C10.9417 16.9874 11.6541 16.714 12.2031 16.22C12.752 16.7142 13.4645 16.9877 14.2031 16.9877C14.9417 16.9877 15.6542 16.7142 16.2031 16.22C16.7399 16.7043 17.4344 16.9771 18.1574 16.9876C18.8803 16.9981 19.5824 16.7455 20.1331 16.277C20.2551 16.692 21.3651 17 21.8181 17C22.1436 16.9974 22.4652 16.9288 22.7635 16.7983C23.0618 16.6679 23.3305 16.4783 23.5534 16.2411C23.7763 16.0038 23.9488 15.7239 24.0605 15.4181C24.1722 15.1123 24.2207 14.7871 24.2031 14.462C24.2189 13.4257 24.0579 12.3942 23.7271 11.412Z" fill="#026247"/>
</g>
<defs>
<clipPath id="clip0_266_1269">
<rect width="24" height="24" fill="white" transform="translate(0.203369)"/>
</clipPath>
</defs>
</svg>
