<svg width="17" height="16" viewBox="0 0 17 16" fill="none" xmlns="http://www.w3.org/2000/svg">
<g clip-path="url(#clip0_273_1381)">
<path d="M15.8334 7.33276H14.5001V5.99942C14.5001 5.63123 14.2016 5.33276 13.8334 5.33276C13.4652 5.33276 13.1667 5.63123 13.1667 5.99942V7.33276H11.8334C11.4652 7.33276 11.1667 7.63123 11.1667 7.99941C11.1667 8.3676 11.4652 8.66607 11.8334 8.66607H13.1667V9.99941C13.1667 10.3676 13.4652 10.6661 13.8334 10.6661C14.2016 10.6661 14.5001 10.3676 14.5001 9.99941V8.66607H15.8334C16.2016 8.66607 16.5001 8.3676 16.5001 7.99941C16.5001 7.63123 16.2016 7.33276 15.8334 7.33276Z" fill="#026247"/>
<path d="M6.5 8C8.70914 8 10.5 6.20914 10.5 4C10.5 1.79086 8.70914 0 6.5 0C4.29086 0 2.5 1.79086 2.5 4C2.5 6.20914 4.29086 8 6.5 8Z" fill="#026247"/>
<path d="M6.5 9.33276C3.18781 9.33645 0.503688 12.0206 0.5 15.3328C0.5 15.701 0.798469 15.9994 1.16666 15.9994H11.8333C12.2015 15.9994 12.5 15.701 12.5 15.3328C12.4963 12.0206 9.81219 9.33642 6.5 9.33276Z" fill="#026247"/>
</g>
<defs>
<clipPath id="clip0_273_1381">
<rect width="16" height="16" fill="white" transform="translate(0.5)"/>
</clipPath>
</defs>
</svg>
