<svg width="24" height="25" viewBox="0 0 24 25" fill="none" xmlns="http://www.w3.org/2000/svg">
<g clip-path="url(#clip0_273_1397)">
<path d="M7 5.5C7 4.17392 7.52678 2.90215 8.46447 1.96447C9.40215 1.02678 10.6739 0.5 12 0.5C13.3261 0.5 14.5979 1.02678 15.5355 1.96447C16.4732 2.90215 17 4.17392 17 5.5C17 6.03043 16.7893 6.53914 16.4142 6.91421C16.0391 7.28929 15.5304 7.5 15 7.5H12.2L13.83 5.055C13.9772 4.83434 14.0307 4.56424 13.9788 4.30413C13.9268 4.04402 13.7737 3.8152 13.553 3.668C13.3323 3.5208 13.0622 3.4673 12.8021 3.51924C12.542 3.57119 12.3132 3.72434 12.166 3.945L9.8 7.5H9C8.46957 7.5 7.96086 7.28929 7.58579 6.91421C7.21071 6.53914 7 6.03043 7 5.5ZM19 2.5H18.326C18.7706 3.43755 19.0009 4.46236 19 5.5C19 6.56087 18.5786 7.57828 17.8284 8.32843C17.0783 9.07857 16.0609 9.5 15 9.5H8.466L8.474 9.487C7.52767 9.40782 6.64554 8.97627 6.0022 8.27775C5.35887 7.57922 5.0012 6.66464 5 5.715C5.00487 4.60089 5.26017 3.50213 5.747 2.5H5C3.67392 2.5 2.40215 3.02678 1.46447 3.96447C0.526784 4.90215 0 6.17392 0 7.5L0 19.5C0 20.1566 0.129329 20.8068 0.380602 21.4134C0.631876 22.02 1.00017 22.5712 1.46447 23.0355C2.40215 23.9732 3.67392 24.5 5 24.5H19C19.6566 24.5 20.3068 24.3707 20.9134 24.1194C21.52 23.8681 22.0712 23.4998 22.5355 23.0355C22.9998 22.5712 23.3681 22.02 23.6194 21.4134C23.8707 20.8068 24 20.1566 24 19.5V7.5C24 6.84339 23.8707 6.19321 23.6194 5.58658C23.3681 4.97995 22.9998 4.42876 22.5355 3.96447C22.0712 3.50017 21.52 3.13188 20.9134 2.8806C20.3068 2.62933 19.6566 2.5 19 2.5Z" fill="#004330"/>
</g>
<defs>
<clipPath id="clip0_273_1397">
<rect width="24" height="24" fill="white" transform="translate(0 0.5)"/>
</clipPath>
</defs>
</svg>
